<svg width="96" height="96" viewBox="0 0 96 96" fill="none" xmlns="http://www.w3.org/2000/svg">
  <rect width="96" height="96" rx="24" fill="#111111"/>
  <path d="M61.5 31.5C57.9 28.5 53.1 27 48 27C36.9543 27 28 35.9543 28 47C28 58.0457 36.9543 67 48 67C53.1 67 57.9 65.5 61.5 62.5L56.5 56.5C54.1 58.2 51.1 59.2 48 59.2C41.2688 59.2 35.8 53.7312 35.8 47C35.8 40.2688 41.2688 34.8 48 34.8C51.1 34.8 54.1 35.8 56.5 37.5L61.5 31.5Z" fill="white"/>
  <path d="M67.9999 38C63.5816 38 59.9999 41.5817 59.9999 46V48C59.9999 52.4183 63.5816 56 67.9999 56H68.1999V60H67.9999C61.3725 60 55.9999 54.6274 55.9999 48V46C55.9999 39.3726 61.3725 34 67.9999 34H68.1999V38H67.9999Z" fill="#B8FF3B"/>
</svg>
