<svg version="1.1" id="Layer_1" xmlns:x="ns_extend;" xmlns:i="ns_ai;" xmlns:graph="ns_graphs;" xmlns="http://www.w3.org/2000/svg" xmlns:xlink="http://www.w3.org/1999/xlink" x="0px" y="0px" viewBox="0 0 118 51.41" style="enable-background:new 0 0 118 51.41;" xml:space="preserve">
 <style type="text/css">
  .st0{fill:#FFFFFF;}
	.st1{fill:#3FECE2;}
 </style>
 <metadata>
  <sfw xmlns="ns_sfw;">
   <slices>
   </slices>
   <sliceSourceBounds bottomLeftOrigin="true" height="51.41" width="118" x="141.35" y="-225.89">
   </sliceSourceBounds>
  </sfw>
 </metadata>
 <g>
  <path class="st0" d="M27.24,2.51c0.03-0.32-0.01-0.63-0.1-0.94c-0.1-0.3-0.26-0.58-0.47-0.81c-0.21-0.24-0.47-0.42-0.76-0.56
		C25.61,0.07,25.3,0,24.98,0h-0.03c-0.32,0-0.63,0.08-0.92,0.21c-0.29,0.13-0.55,0.33-0.76,0.57c-0.21,0.24-0.37,0.52-0.46,0.83
		s-0.12,0.63-0.08,0.94c0,2.16,0,3.69,0,5.84v3.11c-2.49-2.21-5.69-3.43-9.02-3.45c-0.32,0-0.65,0.01-0.97,0.03
		c-1.91,0.09-3.78,0.6-5.47,1.49c-1.69,0.89-3.18,2.14-4.34,3.66c-1.59,2.01-2.58,4.42-2.86,6.96c-0.28,2.54,0.17,5.12,1.29,7.42
		c1.12,2.3,2.87,4.24,5.05,5.59c2.17,1.35,4.69,2.06,7.25,2.04c3.33-0.03,6.54-1.22,9.08-3.36v0.88c-0.04,0.32-0.01,0.64,0.08,0.94
		c0.09,0.3,0.25,0.58,0.47,0.82c0.21,0.24,0.47,0.42,0.76,0.55c0.29,0.13,0.61,0.19,0.92,0.19H25c0.32,0,0.64-0.07,0.93-0.2
		c0.29-0.13,0.55-0.32,0.76-0.56s0.37-0.52,0.47-0.82s0.13-0.63,0.09-0.94C27.25,21.36,27.24,11.89,27.24,2.51z M22.73,21.66
		c0,2.41-0.96,4.72-2.67,6.43c-1.7,1.71-4.02,2.66-6.43,2.67c-2.41,0-4.73-0.95-6.43-2.66s-2.67-4.01-2.67-6.43
		c0-2.41,0.95-4.73,2.66-6.43c1.7-1.71,4.01-2.67,6.43-2.67v-0.31v0.31c2.41,0.01,4.72,0.96,6.43,2.67S22.72,19.25,22.73,21.66
		L22.73,21.66z">
  </path>
  <path class="st0" d="M38.84,18.63c0.03-0.31-0.01-0.63-0.1-0.93c-0.1-0.3-0.26-0.58-0.47-0.81c-0.21-0.24-0.47-0.42-0.76-0.55
		c-0.29-0.13-0.6-0.2-0.92-0.2h-0.04c-0.32,0.01-0.63,0.08-0.92,0.21c-0.29,0.13-0.54,0.33-0.75,0.57
		c-0.21,0.24-0.37,0.52-0.46,0.82s-0.13,0.62-0.1,0.94c0,1.72,0,2.97,0,4.68v4.25c0,1.69,0,3.38,0,5.08
		c-0.04,0.32-0.02,0.65,0.08,0.96c0.09,0.31,0.25,0.6,0.47,0.84c0.21,0.24,0.48,0.44,0.77,0.57c0.29,0.13,0.61,0.21,0.94,0.21h0.02
		c0.32,0,0.63-0.07,0.93-0.2c0.29-0.13,0.55-0.32,0.76-0.56c0.21-0.24,0.37-0.52,0.47-0.82c0.1-0.3,0.13-0.63,0.09-0.94
		C38.85,27.47,38.85,23.18,38.84,18.63z">
  </path>
  <path class="st1" d="M36.66,8.04h-0.07c-0.7,0.01-1.37,0.29-1.88,0.77c-0.5,0.49-0.8,1.15-0.83,1.85
		c-0.01,0.36,0.05,0.72,0.18,1.06c0.13,0.34,0.33,0.64,0.58,0.9c0.25,0.26,0.55,0.47,0.88,0.62c0.33,0.14,0.69,0.22,1.05,0.22h0.01
		c0.71-0.01,1.39-0.29,1.89-0.79c0.5-0.5,0.79-1.18,0.8-1.89c0.01-0.71-0.26-1.39-0.75-1.91C38.05,8.37,37.38,8.07,36.66,8.04
		L36.66,8.04z">
  </path>
  <path class="st0" d="M70.37,30.25c-0.13-0.14-0.2-0.32-0.2-0.51c0-0.19,0.07-0.38,0.2-0.51c1.65-2.47,2.45-5.4,2.28-8.36
		s-1.3-5.79-3.23-8.05c-0.06-0.07-0.12-0.15-0.19-0.24h0.05h0.52c0.25,0,1.23,0,1.41-0.01c0.47,0.01,0.93-0.14,1.3-0.41
		c0.38-0.28,0.65-0.67,0.79-1.12c0.13-0.33,0.17-0.68,0.13-1.03c-0.04-0.35-0.17-0.68-0.37-0.97c-0.25-0.33-0.58-0.59-0.96-0.77
		c-0.38-0.17-0.79-0.26-1.2-0.24h-1.1c-1.77,0-3.6-0.01-5.4-0.01c-2.08,0-3.89,0.01-5.55,0.03c-1.07,0.02-2.13,0.16-3.17,0.42
		c-3.18,0.8-5.96,2.72-7.84,5.42c-1.87,2.69-2.7,5.97-2.34,9.23c0.41,3.35,2.01,6.44,4.5,8.72c2.49,2.21,5.71,3.43,9.04,3.41
		c2.72,0,5.38-0.8,7.63-2.31c0.98,1.46,1.48,3.18,1.45,4.93c-0.03,2.15-0.82,4.21-2.22,5.84c-1.4,1.63-3.32,2.72-5.44,3.07
		c-0.48,0.08-0.96,0.12-1.44,0.12c-1.87-0.01-3.69-0.59-5.22-1.67c-1.53-1.08-2.68-2.61-3.31-4.37c-0.11-0.33-0.2-0.66-0.27-1
		c-0.05-0.22-0.11-0.45-0.17-0.67c-0.12-0.49-0.41-0.93-0.8-1.25s-0.89-0.5-1.39-0.51c-0.13,0-0.26,0.01-0.38,0.04
		c-0.57,0.09-1.08,0.4-1.42,0.86c-0.35,0.46-0.5,1.04-0.42,1.61c0.04,0.51,0.14,1.02,0.3,1.51c0.66,2.57,2.08,4.88,4.07,6.63
		c2,1.75,4.48,2.85,7.11,3.16c0.75,0.11,1.51,0.16,2.27,0.17c2.26,0.02,4.48-0.56,6.44-1.69c1.96-1.12,3.58-2.75,4.71-4.7
		c1.45-2.19,2.22-4.76,2.2-7.39C72.64,35,71.82,32.45,70.37,30.25z M59.08,30.75h-0.03c-2.41,0-4.72-0.97-6.42-2.67
		c-1.7-1.71-2.66-4.02-2.65-6.43c0-2.41,0.97-4.72,2.67-6.42c1.71-1.7,4.02-2.66,6.43-2.65v-0.31l0.01,0.31
		c2.41,0,4.72,0.96,6.43,2.67c1.7,1.71,2.66,4.02,2.66,6.43c0,2.41-0.96,4.72-2.67,6.43C63.81,29.8,61.49,30.75,59.08,30.75z">
  </path>
  <path class="st0" d="M83.92,18.63c0.03-0.31-0.01-0.63-0.1-0.93c-0.1-0.3-0.26-0.58-0.47-0.81c-0.21-0.24-0.47-0.42-0.76-0.55
		c-0.29-0.13-0.6-0.2-0.92-0.2h-0.04c-0.32,0.01-0.63,0.08-0.92,0.21c-0.29,0.13-0.55,0.33-0.76,0.57
		c-0.21,0.24-0.37,0.52-0.46,0.82c-0.1,0.3-0.13,0.62-0.1,0.94c0,1.72,0,2.97,0,4.68v4.25c0,1.69,0,3.38,0,5.08
		c-0.04,0.32-0.02,0.65,0.08,0.96c0.09,0.31,0.25,0.6,0.46,0.84c0.21,0.24,0.48,0.44,0.77,0.57c0.29,0.13,0.61,0.21,0.94,0.21h0.02
		c0.32,0,0.63-0.07,0.93-0.2c0.29-0.13,0.55-0.32,0.76-0.56s0.37-0.52,0.47-0.82c0.1-0.3,0.13-0.63,0.09-0.94
		C83.93,27.47,83.93,23.18,83.92,18.63z">
  </path>
  <path class="st1" d="M81.75,8.04h-0.07c-0.7,0.01-1.37,0.29-1.88,0.77c-0.5,0.49-0.8,1.15-0.83,1.85
		c-0.01,0.36,0.05,0.72,0.18,1.05c0.13,0.34,0.33,0.64,0.58,0.9c0.25,0.26,0.55,0.47,0.88,0.62c0.33,0.14,0.69,0.22,1.05,0.22h0.01
		c0.71,0,1.39-0.29,1.89-0.79c0.5-0.5,0.79-1.18,0.8-1.89c0.01-0.71-0.26-1.4-0.75-1.91C83.13,8.37,82.45,8.07,81.75,8.04
		L81.75,8.04z">
  </path>
  <path class="st0" d="M114.02,12.01c-1.58-1.58-3.53-2.74-5.67-3.39c-2.14-0.65-4.4-0.76-6.6-0.33c-2.19,0.43-4.24,1.4-5.97,2.82
		c-1.73,1.41-3.09,3.23-3.95,5.3s-1.2,4.31-0.99,6.53s0.97,4.36,2.2,6.23c1.23,1.86,2.91,3.4,4.87,4.46
		c1.97,1.06,4.16,1.63,6.4,1.64h0.03c1.79,0.01,3.57-0.33,5.23-1.01c1.66-0.68,3.17-1.67,4.45-2.93c1.27-1.26,2.27-2.75,2.96-4.4
		s1.03-3.42,1.03-5.2c0.01-1.8-0.33-3.59-1.02-5.26C116.3,14.8,115.29,13.28,114.02,12.01z M104.39,30.75
		c-2.41-0.01-4.71-0.98-6.41-2.68c-1.7-1.71-2.65-4.02-2.64-6.43c0.01-2.4,0.97-4.71,2.67-6.4c1.7-1.7,4-2.66,6.41-2.66h0.02
		c2.41,0.01,4.71,0.98,6.41,2.68c1.7,1.71,2.65,4.02,2.65,6.43c-0.01,2.41-0.97,4.71-2.68,6.41
		C109.11,29.79,106.8,30.75,104.39,30.75L104.39,30.75z">
  </path>
 </g>
</svg>