<?xml version="1.0" encoding="UTF-8"?>
<svg version="1.1" xmlns="http://www.w3.org/2000/svg" width="2400" height="2966">
<path d="M0 0 C3.14239497 0.00544118 6.2847824 0.00780777 9.42718124 0.00987244 C39.30562312 0.04045721 69.03203441 0.43725688 98.81155014 3.0900116 C101.46335682 3.32292834 104.11602245 3.54129525 106.76937485 3.75584412 C201.46900192 11.45590264 294.92936846 31.2340759 486.40560532 100.31785583 C487.5973436 100.84040955 488.78908188 101.36296326 490.01693344 101.90135193 C508.27058571 109.91003198 526.18904308 118.55644283 544.03060532 127.44285583 C545.52146652 128.18239502 545.52146652 128.18239502 547.04244614 128.93687439 C560.91104085 135.82841881 574.45591286 143.1708192 587.88496017 150.88218689 C591.08224039 152.70324287 594.30191744 154.48132332 597.5288353 156.24920654 C624.6846725 171.12967554 650.77821674 187.96666744 676.40560532 205.31785583 C677.16840805 205.8333197 677.93121078 206.34878357 678.71712875 206.87986755 C689.43922211 214.13915483 699.94786584 221.68394533 710.40560532 229.31785583 C711.20466293 229.90002869 712.00372055 230.48220154 712.82699203 231.08201599 C722.60373133 238.21239054 732.26714013 245.4513328 741.73177719 252.99119568 C743.45397859 254.35619603 745.18595355 255.70780599 746.92123032 257.05613708 C753.86184582 262.45492397 760.64529311 267.9978877 767.33138657 273.70848083 C770.11293619 276.08054619 772.93909193 278.39278296 775.78060532 280.69285583 C785.57318229 288.67516021 795.06932604 297.00646807 804.34554672 305.58177185 C806.93461016 307.97501272 809.54568175 310.33069522 812.21810532 312.63035583 C822.01842265 321.15237091 831.4069535 330.15236019 840.48617172 339.43528748 C843.34728847 342.34215769 846.26899552 345.09630238 849.36654282 347.75144958 C853.39877756 351.23692429 857.00002794 355.01256408 860.59310532 358.94285583 C865.43097815 364.17535878 870.33394295 369.3114811 875.40560532 374.31785583 C879.23212368 378.10359425 882.92788663 381.93375748 886.40951157 386.04051208 C889.28155944 389.31723206 892.29044038 392.46162088 895.28060532 395.63035583 C900.1697359 400.82653947 904.80981903 406.13127893 909.26498032 411.70848083 C911.55680996 414.50217099 913.95792344 417.15994361 916.40560532 419.81785583 C921.3006666 425.14416672 925.86739551 430.68726279 930.40560532 436.31785583 C931.86311301 438.08936878 933.32145454 439.86019601 934.78060532 441.63035583 C939.55810275 447.4722698 944.22249986 453.39842291 948.86507797 459.34764099 C950.49230479 461.42873773 952.1264934 463.50425009 953.76107407 465.57957458 C961.34338233 475.23296649 968.64489016 485.05013776 975.77474594 495.04148865 C977.44879498 497.37814032 979.13602181 499.70471783 980.82748032 502.02879333 C986.87605341 510.34320036 992.76930615 518.71627477 998.40560532 527.31785583 C999.58636172 529.08745434 1000.77127011 530.85423376 1001.95614243 532.62107849 C1023.62225673 564.97144998 1043.65129903 598.28352182 1061.97689438 632.63963318 C1063.24724112 635.02099062 1064.52480029 637.39830277 1065.80404282 639.77488708 C1068.38589578 644.59801988 1070.90547619 649.45191178 1073.40560532 654.31785583 C1073.71133469 654.9125769 1074.01706406 655.50729797 1074.33205795 656.12004089 C1086.16889249 679.1738403 1097.22003935 702.48770169 1107.40560532 726.31785583 C1107.70662155 727.02172424 1108.00763779 727.72559265 1108.31777573 728.45079041 C1144.38993072 812.97921226 1170.67607029 901.3923466 1119.479702 1644.66899109 C1109.52918815 1669.20827684 1098.78834973 1693.41151645 1087.40560532 1717.31785583 C1086.36769696 1719.51570264 1085.32993723 1721.71361965 1084.29232407 1723.91160583 C1078.70733812 1735.69399362 1072.93392563 1747.34618628 1066.74789047 1758.82469177 C1065.28618627 1761.53966509 1063.83627755 1764.26078597 1062.38607407 1766.98191833 C1054.72760794 1781.29569114 1046.68979273 1795.35808105 1038.40560532 1809.31785583 C1037.77831528 1810.37746521 1037.15102524 1811.43707458 1036.50472641 1812.52879333 C1028.73423205 1825.63745031 1020.82707653 1838.61748962 1012.40560532 1851.31785583 C1011.74689438 1852.31542908 1011.08818344 1853.31300232 1010.40951157 1854.34080505 C982.54466692 1896.51680543 952.65328996 1937.24717168 919.79574203 1975.68943787 C918.34026521 1977.3943958 916.89034479 1979.10397914 915.44076157 1980.81394958 C909.70999068 1987.55711971 903.85977247 1994.16146369 897.85091782 2000.65769958 C895.85399739 2002.83006829 893.89731798 2005.02324746 891.96810532 2007.25535583 C884.59043809 2015.74496812 876.92002974 2023.96613785 868.85482407 2031.80613708 C866.8835064 2033.82775951 865.04173412 2035.87505244 863.20248032 2038.01316833 C859.00415197 2042.85122042 854.50671458 2047.36337616 849.96810532 2051.88035583 C848.75670883 2053.0975531 848.75670883 2053.0975531 847.52083969 2054.33934021 C843.21851163 2058.63473462 838.83439192 2062.75233305 834.22567368 2066.71604919 C831.48871626 2069.12479199 828.94958461 2071.7086463 826.40560532 2074.31785583 C822.58821556 2078.18230032 818.72525679 2081.89787222 814.58529282 2085.41941833 C812.26787596 2087.43781366 810.02337971 2089.52148567 807.77791977 2091.61912537 C802.37135097 2096.66922571 796.85742078 2101.47248516 791.08529282 2106.10691833 C788.27307217 2108.42720534 785.58763269 2110.84856718 782.90560532 2113.31785583 C777.57586138 2118.21159815 772.03790281 2122.77892899 766.40560532 2127.31785583 C765.18732968 2128.31554388 763.96993225 2129.31430494 762.75326157 2130.31394958 C753.76508282 2137.68524289 744.61598702 2144.81325877 735.35287094 2151.83494568 C733.58648556 2153.18010927 731.82937893 2154.53593929 730.07748032 2155.89988708 C721.73861401 2162.38450799 713.21684845 2168.59031968 704.62289047 2174.73143005 C702.62316837 2176.16219357 700.6290908 2177.60043436 698.63607407 2179.04051208 C677.47506959 2194.23911509 655.6163673 2208.70264195 633.40560532 2222.31785583 C632.79829575 2222.69055603 632.19098618 2223.06325623 631.56527328 2223.44725037 C627.20360065 2226.11331234 622.80892922 2228.72132791 618.40560532 2231.31785583 C617.5756102 2231.80947205 616.74561508 2232.30108826 615.8904686 2232.80760193 C578.45042358 2254.95834553 540.09459473 2275.4805333 500.40560532 2293.31785583 C499.12536981 2293.89941717 497.84542951 2294.48162873 496.56576157 2295.06443787 C473.18596832 2305.70251796 449.43665418 2315.253811 425.40560532 2324.31785583 C424.24608353 2324.75581482 424.24608353 2324.75581482 423.06313705 2325.20262146 C383.23679968 2340.21779516 342.62372474 2352.73174021 301.40560532 2363.31785583 C300.11644211 2363.64916504 300.11644211 2363.64916504 298.8012352 2363.98716736 C213.91264747 2385.71222787 126.3460401 2397.41529714 38.78060532 2399.88035583 C38.04470169 2399.90120239 37.30879807 2399.92204895 36.55059433 2399.94352722 C-52.14910967 2402.3932667 -140.83724974 2395.01236756 -278.59439468 2367.31785583 C-279.45186295 2367.11138428 -280.30933121 2366.90491272 -281.19278336 2366.69218445 C-360.37533531 2347.55805483 -437.00792007 2320.20444857 -510.59439468 2285.31785583 C-512.66078277 2284.34646303 -514.7271887 2283.37510819 -516.79361343 2282.40379333 C-540.5660742 2271.16990234 -563.94455813 2259.13870117 -586.71060562 2245.98045349 C-589.7821945 2244.20958317 -592.86339312 2242.45626419 -595.94595718 2240.70457458 C-617.6873958 2228.31516376 -638.70854493 2214.99229743 -659.53189468 2201.13035583 C-660.76194733 2200.3122493 -660.76194733 2200.3122493 -662.01684952 2199.47761536 C-676.60224856 2189.76528525 -691.0111382 2179.81065077 -705.09439468 2169.38035583 C-705.87645279 2168.802453 -706.65851089 2168.22455017 -707.46426773 2167.62913513 C-727.01951224 2153.13756603 -746.21282887 2138.17674613 -764.75430679 2122.4059906 C-768.20579327 2119.47501923 -771.69657731 2116.60070833 -775.21939468 2113.75535583 C-779.98246686 2109.87972651 -784.52803718 2105.80551295 -789.04751968 2101.64988708 C-791.18381217 2099.69380332 -793.34220126 2097.77597886 -795.53189468 2095.88035583 C-799.85686476 2092.11798349 -804.07671718 2088.2435313 -808.28897476 2084.35618591 C-810.24808152 2082.55079187 -812.21624438 2080.75887343 -814.19766617 2078.97776794 C-825.05770837 2069.13887816 -835.35022992 2058.7143274 -845.69839859 2048.34422302 C-848.43473413 2045.60215522 -851.17558651 2042.86465289 -853.91776466 2040.12842941 C-856.0575899 2037.99223922 -858.19500153 2035.85364673 -860.33171844 2033.71434784 C-861.34114556 2032.70426145 -862.35129424 2031.69489553 -863.36222839 2030.68631744 C-868.44718122 2025.61063533 -873.44266917 2020.51425556 -878.10531998 2015.04504395 C-880.78722165 2011.93428754 -883.64450092 2008.98569013 -886.46939468 2006.00535583 C-891.35964799 2000.81026899 -895.99869186 1995.50432826 -900.45376968 1989.92723083 C-902.74559933 1987.13354068 -905.14671281 1984.47576806 -907.59439468 1981.81785583 C-912.00816581 1977.01144863 -916.15799778 1972.046755 -920.25308609 1966.96824646 C-921.79626505 1965.06946783 -923.35630265 1963.18529845 -924.91861343 1961.30223083 C-931.48073868 1953.39071587 -937.93343923 1945.43192668 -944.13785172 1937.2353363 C-945.85357781 1934.97665164 -947.58128196 1932.72735346 -949.30923843 1930.47801208 C-957.37981431 1919.95681306 -965.32238164 1909.36053294 -973.0055275 1898.55271912 C-974.05959518 1897.07009226 -975.11621365 1895.58927537 -976.17544937 1894.1103363 C-1023.33225206 1828.21468197 -1063.6122949 1756.74781649 -1095.81607437 1682.4125824 C-1097.42361209 1678.70319613 -1099.0573024 1675.0058008 -1100.69595718 1671.31004333 C-1139.35616528 1583.49697176 -1165.64889314 1489.39002782 -1195.98550797 1206.01560974 C-1195.96841799 1200.85087603 -1195.97862282 1195.68660674 -1195.99583054 1190.52188873 C-1196.1027165 1152.54277059 -1194.42684549 1114.59057738 -1190.34439468 1076.81785583 C-1190.19099121 1075.35770554 -1190.19099121 1075.35770554 -1190.03448868 1073.86805725 C-1184.54445276 1021.81547624 -1175.85716467 970.20243872 -1163.59439468 919.31785583 C-1163.28468735 918.03165344 -1163.28468735 918.03165344 -1162.9687233 916.71946716 C-1146.46276743 848.4130569 -1124.08149193 781.57117411 -1095.59439468 717.31785583 C-1095.07184097 716.12611755 -1094.54928726 714.93437927 -1094.01089859 713.70652771 C-1086.00221854 695.45287544 -1077.35580769 677.53441807 -1068.46939468 659.69285583 C-1067.7298555 658.20199463 -1067.7298555 658.20199463 -1066.97537613 656.68101501 C-1060.08383171 642.8124203 -1052.74143132 629.26754829 -1045.03006363 615.83850098 C-1043.20900765 612.64122077 -1041.4309272 609.42154371 -1039.66304398 606.19462585 C-1024.78257498 579.03878865 -1007.94558307 552.94524441 -990.59439468 527.31785583 C-989.82119888 526.17365173 -989.82119888 526.17365173 -989.03238297 525.0063324 C-981.77309569 514.28423904 -974.22830519 503.77559531 -966.59439468 493.31785583 C-966.01222183 492.51879822 -965.43004898 491.7197406 -964.83023453 490.89646912 C-957.69985998 481.11972982 -950.46091772 471.45632102 -942.92105484 461.99168396 C-941.55605449 460.26948256 -940.20444452 458.5375076 -938.85611343 456.80223083 C-933.45732654 449.86161533 -927.91436281 443.07816804 -922.20376968 436.39207458 C-919.83170433 433.61052496 -917.51946756 430.78436922 -915.21939468 427.94285583 C-907.23709031 418.15027886 -898.90578245 408.65413511 -890.33047867 399.37791443 C-887.9372378 396.78885099 -885.5815553 394.1777794 -883.28189468 391.50535583 C-874.51415325 381.42557708 -865.20958012 371.84952326 -855.71402359 362.45896912 C-852.67292613 359.4402503 -849.72172391 356.41955915 -846.96939468 353.13035583 C-843.62915089 349.18125747 -839.82030859 345.77812184 -835.99551773 342.31248474 C-830.59323308 337.38905811 -825.44560644 332.22952068 -820.3270607 327.01316833 C-816.53008343 323.16616053 -812.62408907 319.53209441 -808.52969742 316.00364685 C-805.53765551 313.39735829 -802.66776154 310.66536388 -799.78189468 307.94285583 C-794.76096128 303.23955821 -789.61099607 298.79601243 -784.23892593 294.49363708 C-781.43600221 292.18753883 -778.76436193 289.77634053 -776.09439468 287.31785583 C-770.7680838 282.42279455 -765.22498773 277.85606564 -759.59439468 273.31785583 C-757.82288174 271.86034814 -756.05205451 270.40200661 -754.28189468 268.94285583 C-748.43998072 264.1653584 -742.51382761 259.50096129 -736.56460953 254.85838318 C-734.48351279 253.23115636 -732.40800043 251.59696775 -730.33267593 249.96238708 C-719.94482027 241.80294554 -709.364233 233.96477866 -698.59439468 226.31785583 C-697.91086929 225.83139587 -697.2273439 225.34493591 -696.52310562 224.84373474 C-692.35658477 221.88067506 -688.17825452 218.93488428 -683.99185562 215.99998474 C-682.28290932 214.8009379 -680.57537918 213.59987161 -678.86880875 212.39744568 C-667.62355279 204.4771548 -656.34889379 196.72068604 -644.60611343 189.55711365 C-641.63167111 187.72479942 -638.68830488 185.84450511 -635.74161148 183.96800232 C-625.14016783 177.22319954 -614.41773606 170.69991496 -603.59439468 164.31785583 C-602.63742691 163.75227966 -601.68045914 163.18670349 -600.69449234 162.60398865 C-560.74722127 139.06605607 -519.22695229 117.55817679 -476.59439468 99.31785583 C-475.92464615 99.03035461 -475.25489761 98.74285339 -474.56485367 98.44664001 C-385.79238746 60.36085331 -293.54404013 32.91169093 -102.84439468 4.13035583 C-101.57006577 4.01199875 -101.57006577 4.01199875 -100.26999283 3.89125061 C-66.8711585 0.82467394 -33.52420738 -0.06041446 0 0 Z M-208.59439468 507.31785583 C-209.73537613 507.48946228 -210.87635757 507.66106873 -212.05191422 507.83787537 C-305.04339992 522.039796 -390.51094465 558.9792722 -467.40347672 612.78562927 C-469.53356974 614.27531769 -471.67075401 615.75431102 -473.80923843 617.23191833 C-500.23162184 635.58389255 -525.5592581 655.79441642 -549.88101578 676.84275818 C-551.59637117 678.31955745 -553.32199956 679.78335177 -555.05142593 681.24363708 C-563.07191645 688.02933935 -570.79850612 695.07858471 -578.43033218 702.29734802 C-579.9907283 703.75423411 -581.56549553 705.19578149 -583.14908218 706.62742615 C-593.57931663 716.07082678 -603.48171137 726.05223249 -613.41666031 736.00975037 C-615.97139272 738.57021753 -618.53064403 741.12611372 -621.09121895 743.68073654 C-623.09207602 745.67795631 -625.09051635 747.67758074 -627.08826447 749.67790985 C-628.48210357 751.07272289 -629.87792529 752.46555381 -631.27380753 753.85832214 C-635.71359786 758.31441513 -640.02809571 762.81946025 -644.11810684 767.60002136 C-646.53314571 770.41020302 -649.0685598 773.10757101 -651.59439468 775.81785583 C-656.01007448 780.58316423 -660.37336379 785.37815804 -664.59439468 790.31785583 C-665.37814468 791.23437927 -666.16189468 792.15090271 -666.96939468 793.09519958 C-702.16700394 834.41299503 -736.13640889 877.78597923 -759.89908218 926.84519958 C-760.88216456 928.85893283 -761.89387675 930.86013834 -762.97720718 932.82176208 C-767.81015876 941.9976107 -766.33259878 952.9796374 -763.56314468 962.63426208 C-760.74200804 970.44926561 -755.47069038 977.46600324 -747.84878922 981.1650238 C-736.51869825 985.85035785 -722.68524246 984.37603834 -711.40298843 980.11863708 C-705.24727096 977.43713963 -700.2658285 973.18609951 -695.26480484 968.78514099 C-693.63867788 967.35675411 -691.98872633 965.96371271 -690.32486343 964.57957458 C-688.21819137 962.82543251 -686.1262258 961.05612185 -684.0470314 959.26951599 C-681.85126608 957.38693846 -679.64415849 955.51985636 -677.42227554 953.66819763 C-669.05167927 946.65314464 -661.21460737 939.22133258 -653.53262711 931.4618988 C-651.63912552 929.54991321 -649.73751469 927.64627934 -647.83462906 925.74363708 C-641.87952901 919.77146496 -636.01972844 913.78236342 -630.59439468 907.31785583 C-629.65689216 906.23469841 -628.71811833 905.15263985 -627.77798843 904.07176208 C-617.48082435 892.12742316 -607.41058794 879.99874039 -597.71182632 867.56272888 C-592.59160944 861.00693717 -587.32987865 854.56749126 -582.06656265 848.12644958 C-580.76710097 846.53002967 -579.47871074 844.9246115 -578.19205093 843.31785583 C-564.00424827 825.66648471 -547.80729197 807.84252754 -529.59439468 794.31785583 C-528.97338882 793.84750916 -528.35238297 793.37716248 -527.71255875 792.89256287 C-503.66223287 774.72208416 -472.49129551 752.88588938 -441.15689468 752.94285583 C-440.2325563 752.94446716 -439.30821793 752.94607849 -438.35586929 752.94773865 C-431.74777798 753.06691915 -426.33299474 753.8337058 -420.59439468 757.31785583 C-419.54251968 757.91598083 -418.49064468 758.51410583 -417.40689468 759.13035583 C-416.47876968 759.85223083 -415.55064468 760.57410583 -414.59439468 761.31785583 C-414.0542775 761.72906677 -413.51416031 762.14027771 -412.95767593 762.56394958 C-400.60360479 773.25230327 -395.93492773 792.77897607 -394.59439468 808.31785583 C-394.41442957 811.71500554 -394.36415651 815.1038517 -394.34439468 818.50535583 C-394.32376968 819.34260193 -394.30314468 820.17984802 -394.28189468 821.04246521 C-394.18019664 838.57266557 -398.34001155 855.87641401 -402.65689468 872.75535583 C-402.91116226 873.76140869 -403.16542984 874.76746155 -403.4274025 875.80400085 C-416.34141317 926.77709107 -432.19288027 977.05132438 -447.59439468 1027.31785583 C-447.80555923 1028.00724998 -448.01672379 1028.69664413 -448.23428726 1029.40692902 C-470.94766839 1103.55632926 -494.38976539 1177.47947732 -545.11935616 1335.45094872 C-548.09788127 1344.67667598 -551.07221313 1353.90374434 -554.04309654 1363.13193512 C-564.11191645 1394.4064787 -574.26140074 1425.65347279 -584.50003433 1456.8729248 C-587.92129355 1467.30809131 -591.32259313 1477.74970717 -594.71939468 1488.19285583 C-595.85991194 1491.69809923 -597.00058033 1495.20329344 -598.14126968 1498.70848083 C-598.56539139 1500.01177589 -598.56539139 1500.01177589 -598.99808121 1501.34140015 C-610.06397952 1535.34351286 -621.20208998 1569.32161442 -632.37686539 1603.28807068 C-633.41034604 1606.4294985 -634.4437918 1609.57093779 -635.47720718 1612.71238708 C-635.86112279 1613.87942043 -635.86112279 1613.87942043 -636.25279427 1615.07003021 C-639.93320152 1626.25853787 -643.60668421 1637.4492963 -647.27408218 1648.64207458 C-647.73082358 1650.03590558 -648.18756997 1651.42973493 -648.64432144 1652.82356262 C-648.86833633 1653.50717299 -649.09235123 1654.19078335 -649.32315445 1654.89510918 C-650.43435242 1658.28604071 -651.5455813 1661.67696212 -652.65689468 1665.06785583 C-652.98354362 1666.06455544 -652.98354362 1666.06455544 -653.31679153 1667.08139038 C-659.30620443 1685.35520994 -665.34228598 1703.6127189 -671.44150162 1721.85020447 C-676.53951799 1737.09819447 -681.57840118 1752.36490841 -686.5067482 1767.66868591 C-689.02526377 1775.48160378 -691.56060657 1783.28301632 -694.25798416 1791.03636169 C-695.40674281 1794.34332591 -696.53483365 1797.65718183 -697.66168594 1800.97166443 C-698.18662674 1802.49648585 -698.72155961 1804.01791677 -699.26807022 1805.53514099 C-704.24299283 1819.35775579 -706.51504058 1834.61743491 -700.91861343 1848.67723083 C-693.49909729 1863.47249017 -681.41837416 1872.20600993 -666.03189468 1877.50535583 C-665.01699966 1877.86222473 -665.01699966 1877.86222473 -663.98160172 1878.2263031 C-650.12971087 1882.73567008 -635.97832277 1883.78175933 -621.52798843 1883.93894958 C-619.63494184 1883.96968422 -617.74191146 1884.00142943 -615.84889603 1884.0340271 C-610.13163958 1884.12723111 -604.41425033 1884.19906672 -598.69665146 1884.26764679 C-594.23976141 1884.32148161 -589.78295636 1884.38124619 -585.32614517 1884.44120789 C-562.0733897 1884.75256753 -538.82025491 1885.02286456 -515.56685102 1885.28064954 C-508.64054023 1885.35764841 -501.71426287 1885.43726027 -494.7879982 1885.51829529 C-444.29417026 1886.14330129 -444.29417026 1886.14330129 -393.79785347 1886.46922112 C-391.94294052 1886.47493106 -390.08803298 1886.48314552 -388.23314476 1886.49429512 C-374.7380416 1886.56906747 -361.70515466 1885.73470817 -348.59439468 1882.31785583 C-347.71799332 1882.09291443 -346.84159195 1881.86797302 -345.93863297 1881.63621521 C-340.07690089 1880.08787339 -334.32130784 1878.30552117 -328.59439468 1876.31785583 C-327.93181656 1876.08872498 -327.26923843 1875.85959412 -326.58658218 1875.6235199 C-309.00788421 1869.39320976 -292.87024034 1860.28733986 -278.59439468 1848.31785583 C-277.71678482 1847.60218445 -277.71678482 1847.60218445 -276.82144547 1846.87205505 C-267.5700283 1839.17783307 -262.50022158 1830.39122076 -257.52017593 1819.52879333 C-255.15797046 1814.38919363 -252.56606098 1809.39783566 -249.91470718 1804.40379333 C-244.50307908 1794.20335521 -239.30820809 1783.90173619 -234.15689468 1773.56785583 C-233.69707199 1772.64665955 -233.2372493 1771.72546326 -232.76349258 1770.77635193 C-225.8995455 1757.0213834 -219.13143381 1743.23161508 -212.59439468 1729.31785583 C-211.69319363 1727.40613663 -210.79128655 1725.49475129 -209.88939285 1723.58335876 C-206.47264826 1716.34166948 -203.06548022 1709.09552374 -199.66319656 1701.84703064 C-197.6917183 1697.64850727 -195.71419097 1693.45292579 -193.72981644 1689.26048279 C-186.15228707 1673.24893839 -178.79922563 1657.15426169 -171.64517593 1640.94895935 C-167.37341564 1631.27910152 -163.01696604 1621.65267469 -158.59393692 1612.0511322 C-150.68251796 1594.8693457 -143.11703463 1577.55168421 -135.67154312 1560.16355896 C-133.91420526 1556.0606808 -132.14878218 1551.96133689 -130.38083267 1547.86302185 C-107.05975076 1493.79808262 -84.5456666 1439.37314817 -63.03555679 1384.56199646 C-56.46868189 1367.84804042 -49.69913301 1351.24940262 -42.03189468 1335.00535583 C-41.71967972 1334.34139801 -41.40746475 1333.67744019 -41.08578873 1332.99336243 C-33.22953504 1316.32652919 -24.95795496 1299.86035911 -16.71939468 1283.38035583 C-16.38220791 1282.70545986 -16.04502113 1282.03056389 -15.69761658 1281.33521652 C-7.82427403 1265.57734209 0.1010978 1249.85430272 8.40560532 1234.31785583 C9.00646957 1233.18903992 9.60733383 1232.060224 10.2264061 1230.89720154 C22.23393753 1208.39591623 34.39792545 1185.96728293 47.33407211 1163.98435974 C51.21239874 1157.39037871 54.98608181 1150.74551425 58.71810532 1144.06785583 C64.28991053 1134.12833288 70.15742201 1124.38313476 76.1014061 1114.66404724 C80.5035733 1107.46454104 84.83248163 1100.22725395 89.09310532 1092.94285583 C94.99690095 1082.88474047 101.21412369 1073.04584982 107.52718735 1063.2407074 C109.52425614 1060.13323305 111.5108203 1057.01922612 113.49544907 1053.90379333 C120.68281264 1042.62777949 127.93482006 1031.40794291 135.40560532 1020.31785583 C136.6353984 1018.46410458 137.86457257 1016.60994258 139.09310532 1014.75535583 C158.44945591 985.74030313 178.6288867 957.32970404 199.40560532 929.31785583 C200.17686752 928.2778241 200.17686752 928.2778241 200.96371078 927.21678162 C212.62464554 911.51834782 224.65942527 896.13522585 237.03792953 880.99705505 C238.82336366 878.80494225 240.5847217 876.59420188 242.34310532 874.38035583 C250.43149353 864.25273415 258.5823424 854.17522863 267.34701157 844.62254333 C269.53906525 842.16844148 271.59785403 839.6353936 273.65560532 837.06785583 C277.80542264 831.93518703 282.22463819 827.11082241 286.74618149 822.30809021 C289.58149918 819.29507097 292.33163756 816.2586909 294.96810532 813.06785583 C311.11914866 794.59263796 337.28424824 782.36536936 361.40560532 779.31785583 C379.09364669 778.31503353 395.49646527 778.62033727 410.40560532 789.31785583 C412.01435532 790.43160583 412.01435532 790.43160583 413.65560532 791.56785583 C422.24692258 800.1591731 423.51346535 809.24479969 424.95003891 820.83055115 C430.79963224 865.6084671 437.82847545 914.97236264 468.40560532 950.31785583 C469.05658188 951.1132074 469.70755844 951.90855896 470.37826157 952.72801208 C484.85781326 969.80576371 504.50003415 980.9498626 525.40560532 988.31785583 C527.22705063 988.95980896 527.22705063 988.95980896 529.08529282 989.61473083 C540.59275519 993.49859225 552.48558027 996.05533261 564.40560532 998.31785583 C565.40656235 998.50839539 566.40751938 998.69893494 567.43880844 998.89524841 C576.15045669 1000.40205185 584.72030958 1000.67761906 593.53060532 1000.63035583 C594.25615616 1000.62820068 594.981707 1000.62604553 595.72924423 1000.62382507 C607.19357845 1000.56931028 618.21878596 999.95330489 629.40560532 997.31785583 C630.65664047 997.03579285 630.65664047 997.03579285 631.93294907 996.74803162 C660.34403618 990.19283035 687.76966515 977.36373264 711.40560532 960.31785583 C712.05335922 959.85266541 712.70111313 959.38747498 713.36849594 958.90818787 C748.5349335 933.48472226 777.52866959 902.17561593 800.40560532 865.31785583 C800.82020004 864.6576947 801.23479477 863.99753357 801.66195297 863.31736755 C836.50623498 807.53613289 852.62722787 738.93732577 837.86654282 674.22019958 C829.75253882 640.57610071 812.90348528 609.95618413 789.46810532 584.56785583 C787.65503437 582.58996026 785.93521518 580.56588767 784.21810532 578.50535583 C774.57456389 567.51569078 763.13584875 558.44770008 751.40169907 549.81394958 C749.59435865 548.45932849 747.84013448 547.06129659 746.09310532 545.63035583 C735.49100765 537.16596196 723.0529569 532.88272949 710.40560532 528.31785583 C709.41206039 527.95417908 708.41851547 527.59050232 707.39486313 527.21580505 C673.20910079 514.82360917 637.57481766 508.07415046 601.21810532 508.13035583 C600.43014572 508.13129242 599.64218613 508.132229 598.83034897 508.13319397 C540.60169999 508.28217453 484.97196215 522.41991646 433.36751938 549.30223083 C431.27148168 550.38728768 429.16342673 551.44649879 427.05404282 552.50535583 C384.51093215 574.09595056 345.96019145 604.4207692 311.08201218 636.78422546 C309.81557849 637.94279932 308.53808772 639.08930272 307.25544357 640.22990417 C301.21607722 645.60298412 295.41450385 651.16210956 289.70638657 656.88426208 C288.82709991 657.76259201 287.94781326 658.64092194 287.04188156 659.54586792 C285.19957394 661.38750028 283.35850743 663.230375 281.51864243 665.07444763 C278.71841687 667.88004369 275.91287359 670.6802424 273.10677719 673.47996521 C271.30632618 675.28107687 269.50618531 677.08249862 267.70638657 678.88426208 C266.46239845 680.12521385 266.46239845 680.12521385 265.19327927 681.39123535 C260.93760558 685.66393162 256.82626328 690.00319975 252.90208054 694.58326721 C250.52421635 697.33948804 248.02071651 699.97596938 245.53060532 702.63035583 C241.01573394 707.47788711 236.7652947 712.47095028 232.61654282 717.63816833 C230.29625581 720.45038898 227.87489397 723.13582846 225.40560532 725.81785583 C220.51066498 731.14403512 215.94186584 736.68580236 211.40560532 742.31785583 C209.99035882 744.04818504 208.57366813 745.77733394 207.15560532 747.50535583 C206.41826157 748.40769958 205.68091782 749.31004333 204.92123032 750.23973083 C203.57802172 751.88328422 202.234408 753.52650946 200.88802719 755.16746521 C194.7106664 762.69774978 188.62021135 770.25451538 182.82748032 778.08738708 C179.86254798 782.07388257 176.78163365 785.96952204 173.71810532 789.88035583 C162.42900657 804.33125677 151.72107242 819.21133984 141.0100975 834.09275818 C139.40922069 836.31284207 137.80285101 838.52884132 136.19466782 840.74363708 C128.76232024 850.98621432 121.46145487 861.31449302 114.23128891 871.70066833 C112.40620097 874.31700194 110.57277833 876.92731673 108.73763657 879.53660583 C99.81308858 892.25621489 91.13859268 905.12910997 82.55794907 918.08226013 C77.79035736 925.27425179 72.97624343 932.43026934 68.09310532 939.54441833 C61.17711711 949.62234544 54.37107498 959.77172228 47.59310532 969.94285583 C46.98043808 970.86149414 46.36777084 971.78013245 45.73653793 972.72660828 C38.15166671 984.10440792 30.64925929 995.52164418 23.33089828 1007.07298279 C16.77904034 1017.37891995 9.97665125 1027.51483541 3.18441391 1037.66307068 C-2.60812442 1046.3213167 -8.37045759 1054.99821741 -14.09048843 1063.70457458 C-15.04289665 1065.15353874 -15.04289665 1065.15353874 -16.01454544 1066.6317749 C-18.51722798 1070.44022042 -21.01957844 1074.2488642 -23.51562881 1078.06166077 C-31.00515154 1089.50213883 -38.65352339 1100.80463798 -46.54361343 1111.97312927 C-50.33654599 1117.34926378 -53.99137577 1122.81262197 -57.59439468 1128.31785583 C-57.92439468 1127.98785583 -58.25439468 1127.65785583 -58.59439468 1127.31785583 C-58.25528055 1125.42015462 -57.82924195 1123.5380092 -57.37295914 1121.6650238 C-57.07627838 1120.43545959 -56.77959763 1119.20589539 -56.47392654 1117.93907166 C-56.13535043 1116.56268605 -55.79659405 1115.18634477 -55.45767593 1113.81004333 C-55.10730756 1112.36983987 -54.75737796 1110.9295296 -54.40785599 1109.48912048 C-53.4499495 1105.5494535 -52.48400731 1101.61179601 -51.51625443 1097.67453766 C-50.90626169 1095.1902779 -50.29847922 1092.7054879 -49.69144058 1090.22050476 C-43.36977635 1064.34573084 -36.89514579 1038.51048489 -30.34439468 1012.69285583 C-30.02883747 1011.44886395 -30.02883747 1011.44886395 -29.70690536 1010.17974091 C-25.98978524 995.52662899 -22.26903178 980.87443373 -18.52945328 966.22703552 C-10.15259379 933.39925524 -2.38393505 900.51257701 4.40560532 867.31785583 C4.59018295 866.42159485 4.77476059 865.52533386 4.96493149 864.60191345 C14.74375103 817.09311167 21.36885672 769.03000997 27.09310532 720.88426208 C27.21245941 719.88677948 27.33181351 718.88929688 27.45478439 717.86158752 C33.83348922 663.33650744 25.78748928 606.86139659 -8.84439468 562.75535583 C-38.20067665 528.09434222 -78.05901702 510.9958231 -122.59439468 505.31785583 C-123.58854134 505.18686241 -123.58854134 505.18686241 -124.60277176 505.05322266 C-130.48224437 504.33219611 -136.28782121 504.1425185 -142.20767593 504.11473083 C-143.20689575 504.10771652 -144.20611557 504.10070221 -145.23561478 504.09347534 C-148.4594208 504.07600497 -151.68304299 504.06961878 -154.90689468 504.06785583 C-156.0090834 504.06718109 -157.11127213 504.06650635 -158.2468605 504.06581116 C-175.23019413 504.08233431 -191.78774874 504.68579898 -208.59439468 507.31785583 Z " fill="#FEFEFE" transform="translate(1195.594394683838,-0.3178558349609375)"/>
<path d="M0 0 C1.49772289 -0.02650837 2.99526674 -0.06732615 4.4921875 -0.12304688 C16.79207682 -0.57546913 16.79207682 -0.57546913 20.97607422 1.77246094 C22.78758918 3.55461093 24.18810629 5.37507098 25.63720703 7.45996094 C26.78335108 8.78615691 27.94258835 10.10113518 29.11376953 11.40527344 C29.6915918 12.07461914 30.26941406 12.74396484 30.86474609 13.43359375 C33.824689 16.81755051 36.9228629 20.06951738 40.01220703 23.33496094 C44.82860609 28.4477176 49.59001731 33.59704316 54.26611328 38.83886719 C57.35111153 42.24913708 60.49351997 45.60384577 63.63720703 48.95996094 C68.22579063 53.85893624 72.75896098 58.79774521 77.23095703 63.80371094 C80.32940936 67.2240804 83.48237899 70.59164202 86.63720703 73.95996094 C91.27167389 78.90871217 95.85589122 83.8939793 100.37548828 88.94824219 C104.56579975 93.60173143 108.83066871 98.18683736 113.08447266 102.78222656 C115.62487183 105.52713586 118.1625304 108.27457312 120.69970703 111.02246094 C121.19704346 111.56104736 121.69437988 112.09963379 122.20678711 112.65454102 C125.97843164 116.74115569 129.73757838 120.83908074 133.49291992 124.94067383 C136.86521883 128.62223605 140.24900289 132.29303564 143.63720703 135.95996094 C147.93365734 140.60984675 152.21749105 145.27099161 156.49267578 149.94042969 C159.86508002 153.62205151 163.24894712 157.29293048 166.63720703 160.95996094 C172.7742332 167.60256352 178.88489331 174.26907753 184.99169922 180.93945312 C190.69981459 187.17358632 196.42021543 193.39601454 202.15649414 199.60424805 C205.94571881 203.70674302 209.72143393 207.82140761 213.49267578 211.94042969 C216.86507993 215.6220514 220.24892484 219.29295117 223.63720703 222.95996094 C227.93365734 227.60984675 232.21749105 232.27099161 236.49267578 236.94042969 C239.86507993 240.6220514 243.24892484 244.29295117 246.63720703 247.95996094 C250.93365734 252.60984675 255.21749105 257.27099161 259.49267578 261.94042969 C262.86508002 265.62205151 266.24894712 269.29293048 269.63720703 272.95996094 C275.32053531 279.11148939 280.98091284 285.28354774 286.63720703 291.45996094 C290.26720703 295.41996094 293.89720703 299.37996094 297.63720703 303.45996094 C297.96720703 203.46996094 298.29720703 103.47996094 298.63720703 0.45996094 C303.58720703 0.78996094 308.53720703 1.11996094 313.63720703 1.45996094 C317.20922246 1.54412485 320.75506983 1.60175923 324.32470703 1.58496094 C325.57477539 1.59076172 325.57477539 1.59076172 326.85009766 1.59667969 C333.5386863 1.58642898 339.91314923 1.02029909 346.63720703 0.45996094 C346.63720703 139.05996094 346.63720703 277.65996094 346.63720703 420.45996094 C337.06720703 420.45996094 327.49720703 420.45996094 317.63720703 420.45996094 C314.66720703 416.82996094 311.69720703 413.19996094 308.63720703 409.45996094 C306.61462932 407.20214338 304.59279652 404.97294033 302.51220703 402.77246094 C301.47887375 401.66641943 300.44631666 400.55965223 299.41455078 399.45214844 C298.93228027 398.93491211 298.45000977 398.41767578 297.953125 397.88476562 C296.2915277 396.08567808 294.67697213 394.24947959 293.07470703 392.39746094 C288.84534421 387.51270049 284.45263985 382.77732875 280.07666016 378.02441406 C277.75978381 375.50634357 275.4487153 372.98295817 273.13720703 370.45996094 C272.22056987 369.4599339 271.30390316 368.45993393 270.38720703 367.45996094 C225.01220703 317.95996094 179.63720703 268.45996094 55.88720703 133.45996094 C55.4328125 132.96431641 54.97841797 132.46867187 54.51025391 131.95800781 C53.59986145 130.96473468 52.68970255 129.97124741 51.77978516 128.97753906 C49.39406084 126.37275254 47.00357707 123.77255563 44.60595703 121.17871094 C44.10902344 120.63988281 43.61208984 120.10105469 43.10009766 119.54589844 C41.7178466 118.04738328 40.33383108 116.55049625 38.94970703 115.05371094 C36.63720703 112.45996094 36.63720703 112.45996094 33.63720703 108.45996094 C33.30720703 211.74996094 32.97720703 315.03996094 32.63720703 421.45996094 C21.63720703 420.45996094 21.63720703 420.45996094 18.33642578 419.90917969 C10.26160373 418.56532363 2.11702043 419.25425285 -5.82763672 421.02246094 C-8.70948626 421.5197909 -11.44312076 421.48805642 -14.36279297 421.45996094 C-14.38565691 367.97146602 -14.40328995 314.48297159 -14.4138583 260.99447275 C-14.41510908 254.68682622 -14.41640339 248.37917971 -14.41772461 242.0715332 C-14.41798692 240.81573731 -14.41824923 239.55994142 -14.41851949 238.2660911 C-14.42287673 217.90367337 -14.43076456 197.54125844 -14.43994576 177.17884237 C-14.44928082 156.30185863 -14.45484826 135.42487635 -14.45688146 114.5478906 C-14.458257 101.65452102 -14.46260924 88.76115938 -14.47070944 75.86779224 C-14.47597507 67.03924394 -14.47759768 58.21069976 -14.47629435 49.38215 C-14.47565068 44.28037436 -14.4766717 39.17861264 -14.48199844 34.07683945 C-14.48683131 29.41433079 -14.48713237 24.75184554 -14.48369186 20.08933585 C-14.48326606 18.39484696 -14.48456274 16.70035667 -14.48767615 15.00587059 C-14.49163834 12.71798581 -14.48955749 10.43018762 -14.4858408 8.14230442 C-14.48622052 6.86682383 -14.48660024 5.59134324 -14.48699147 4.27721173 C-14.1983975 -2.2690961 -5.16229238 0.06971512 0 0 Z " fill="#FCFCFC" transform="translate(1244.36279296875,2544.5400390625)"/>
<path d="M0 0 C209.37894737 0 209.37894737 0 245 30 C246.010625 30.7425 247.02125 31.485 248.0625 32.25 C264.54276525 46.26288091 270.74564373 68.49337992 272.55053711 89.16357422 C274.71171698 118.95601887 265.62011004 145.84294827 246.22338867 168.37841797 C222.90162271 194.6663542 189.50833241 208.81868242 156 217 C156.73863281 217.92039062 157.47726563 218.84078125 158.23828125 219.7890625 C163.33594532 226.14779458 168.41822497 232.51665464 173.4375 238.9375 C177.41927469 244.02910388 181.47320995 249.05692264 185.5625 254.0625 C190.29255921 259.85366202 194.88466964 265.72512398 199.41796875 271.671875 C202.30647402 275.42704455 205.30995713 279.08585728 208.3125 282.75 C212.80150902 288.23055985 217.16363014 293.78772857 221.4375 299.4375 C226.43640547 306.03987083 231.61634265 312.46384921 236.90771484 318.83349609 C240.98517772 323.74712856 244.96268672 328.72624865 248.88720703 333.76245117 C252.36898174 338.22128697 255.92260833 342.61761659 259.5 347 C263.53210829 351.93942126 267.51810853 356.90819236 271.4375 361.9375 C275.53937923 367.1975569 279.74578038 372.36250363 284 377.5 C288.7066332 383.18384171 293.33653309 388.9145695 297.86694336 394.73974609 C300.37297808 397.95417924 302.91521975 401.13355055 305.5 404.28515625 C306.38836548 405.3688147 306.38836548 405.3688147 307.29467773 406.47436523 C308.44711461 407.87635618 309.60272916 409.27574293 310.76196289 410.67211914 C311.2852417 411.30883545 311.80852051 411.94555176 312.34765625 412.6015625 C312.81179932 413.16182129 313.27594238 413.72208008 313.75415039 414.29931641 C315.08473249 416.11566657 316.04927801 417.96277834 317 420 C288.67566406 420.18913929 288.67566406 420.18913929 278 419.4375 C273.2383975 419.10841131 268.6368022 418.98991546 263.875 419.4375 C261.58409018 419.63403132 259.29224524 419.81971105 257 420 C256.08814941 420.07557129 255.17629883 420.15114258 254.23681641 420.22900391 C235.4215719 421.61645364 235.4215719 421.61645364 229.95703125 417.96875 C227.87895836 415.08184634 226.45248772 412.243226 225 409 C223.76272734 407.08209548 222.49065309 405.1862645 221.1875 403.3125 C220.52363281 402.30960938 219.85976563 401.30671875 219.17578125 400.2734375 C207.5740029 382.81869737 195.34327849 365.89003526 182.0234375 349.703125 C178.39449819 345.28429039 174.92589674 340.75186148 171.45703125 336.20703125 C168.8559742 332.80145877 166.21308007 329.42960435 163.5625 326.0625 C163.10472168 325.48097168 162.64694336 324.89944336 162.17529297 324.30029297 C161.24740379 323.1220986 160.31934346 321.94403901 159.39111328 320.76611328 C157.09125763 317.84628952 154.79584055 314.92298107 152.5 312 C151.5833549 310.83331639 150.66668823 309.66664973 149.75 308.5 C144.25 301.5 144.25 301.5 142.87524414 299.75 C141.9581661 298.58301697 141.0406853 297.41635034 140.12280273 296.25 C137.83402796 293.34062997 135.55243898 290.42615819 133.28515625 287.5 C128.12980327 280.86283012 122.83310394 274.38958736 117.33569336 268.0324707 C113.63950521 263.75806106 110.03355639 259.42012643 106.46875 255.03515625 C104.55692477 252.68470023 102.64046024 250.33845233 100.71875 247.99609375 C100.13327393 247.28235596 99.54779785 246.56861816 98.94458008 245.83325195 C97.73307944 244.36296841 96.51677005 242.89663387 95.2956543 241.43432617 C92.46440539 238.03949308 89.7020872 234.63890884 87.11328125 231.0546875 C86.65872559 230.45188965 86.20416992 229.8490918 85.73583984 229.22802734 C84.52657336 227.61855232 83.35351618 225.98204692 82.18359375 224.34375 C77.90695929 220.76220483 77.90695929 220.76220483 66 221 C66 286.67 66 352.34 66 420 C54.83138564 420 54.83138564 420 50.43359375 419.4921875 C36.21154106 418.01306562 22.78724753 418.18419158 8.5793457 419.78466797 C5.72858006 420.02265901 2.86068252 420 0 420 C0 281.4 0 142.8 0 0 Z M65 35 C65 84.83 65 134.66 65 186 C85.63718859 196.31859429 127.18783416 187.75101319 148.484375 180.875 C170.75129484 172.77793824 188.97554086 159.26988797 200 138 C208.38864649 118.01590798 209.76966835 94.75860833 201.5625 74.44140625 C197.95720942 66.43012772 193.2786026 60.10829693 187 54 C186.48308594 53.45085938 185.96617187 52.90171875 185.43359375 52.3359375 C164.75647995 32.14470888 129.43531257 32.8082038 102.65869141 32.86962891 C99.87266637 32.8750045 97.08680153 32.86964314 94.30078125 32.86328125 C79.23522272 31.93292361 79.23522272 31.93292361 65 35 Z " fill="#FEFEFE" transform="translate(95,2546)"/>
<path d="M0 0 C213.09339775 0 213.09339775 0 249.5703125 34.42578125 C267.02131306 52.49791912 272.63294737 77.38398036 272.25 101.796875 C270.85360537 131.20494593 258.74053389 156.33804534 237.64453125 176.63671875 C217.06547255 195.02716264 183.37127491 216 155 216 C160.22346871 223.51076401 165.87615196 230.56538169 171.72094727 237.59521484 C176.09545707 242.86797289 180.29465281 248.23730197 184.44140625 253.69140625 C187.3807382 257.52617927 190.44098527 261.26051509 193.5 265 C198.25276184 270.81122816 202.86652253 276.70131873 207.41796875 282.671875 C210.30647402 286.42704455 213.30995713 290.08585728 216.3125 293.75 C220.80151566 299.23056795 225.16342617 304.7878771 229.4375 310.4375 C235.50222112 318.44227237 241.851047 326.18581927 248.26806641 333.90917969 C255.5847644 342.74202457 262.7774583 351.67201098 269.83666992 360.71166992 C273.33802831 365.1850302 276.90832956 369.59893904 280.5 374 C285.003316 379.51814777 289.44180908 385.07989369 293.82275391 390.69555664 C297.96986371 395.99682205 302.21920529 401.2128347 306.49804688 406.40820312 C316 418.00845456 316 418.00845456 316 420 C286.19781132 420.19900783 286.19781132 420.19900783 273.08984375 419.12109375 C266.68791176 418.77331246 260.24717554 419.57331329 253.90649414 420.40649414 C246.6065602 421.33794656 239.11953379 422.28221563 232 420 C226.2832472 415.54887207 223.25911046 408.87151864 220.19921875 402.45654297 C218.68289982 399.35043525 216.91072192 396.64900651 214.9375 393.8125 C214.32003906 392.89339844 213.70257812 391.97429688 213.06640625 391.02734375 C204.16084396 377.98044248 194.78752493 365.39772428 185 353 C184.01768847 351.74912234 183.03588786 350.49784322 182.0546875 349.24609375 C179.81526286 346.39001024 177.5718194 343.53712371 175.32666016 340.68554688 C173.04913794 337.79191173 170.77475993 334.89580677 168.5 332 C167.5833477 330.83332204 166.66668105 329.66665536 165.75 328.5 C149.25 307.5 149.25 307.5 147.87573242 305.75073242 C146.95688297 304.58142108 146.0377739 303.4123137 145.1184082 302.2434082 C142.85798928 299.36880151 140.60185229 296.49106035 138.35546875 293.60546875 C128.79787443 281.34750265 118.90086758 269.37168173 108.83203125 257.53100586 C105.27460646 253.34274336 101.79717937 249.09347754 98.328125 244.83203125 C94.79121887 240.52958672 91.18458135 236.28711947 87.578125 232.04296875 C86.30195313 230.53669922 86.30195313 230.53669922 85 229 C84.2874707 228.18329834 84.2874707 228.18329834 83.56054688 227.35009766 C80 223.21740946 80 223.21740946 80 221 C75.38 221 70.76 221 66 221 C66 286.67 66 352.34 66 420 C54.80160858 420 54.80160858 420 50.15234375 419.52734375 C49.14341064 419.43171143 48.13447754 419.3360791 47.0949707 419.23754883 C46.05300537 419.13853271 45.01104004 419.0395166 43.9375 418.9375 C33.75214975 418.04683431 24.17057368 418.06510047 14 419 C9.38 419.33 4.76 419.66 0 420 C0 281.4 0 142.8 0 0 Z M65 35 C65 84.83 65 134.66 65 186 C85.6945629 196.34728145 127.62906313 187.58655103 149 181 C170.88153044 173.51633626 189.46874881 159.60898657 200.5625 139.11328125 C209.78939498 119.86312239 210.51575256 97.82108936 203.8984375 77.640625 C197.43542348 61.21206033 186.46009994 49.86799758 170.625 42.1875 C149.62359521 33.34801177 126.57250353 32.81668088 104.14086914 32.86962891 C101.43825695 32.8749985 98.73581037 32.86964551 96.03320312 32.86328125 C80.30140862 32.33672485 80.30140862 32.33672485 65 35 Z " fill="#FEFEFE" transform="translate(1987,2546)"/>
<path d="M0 0 C10.89 0 21.78 0 33 0 C44 12 44 12 49.4375 17.9375 C53.78620171 22.6841131 58.15055292 27.41611344 62.51928711 32.14428711 C66.30851177 36.24678208 70.0842269 40.36144667 73.85546875 44.48046875 C77.22787289 48.16209047 80.61171781 51.83299023 84 55.5 C88.29645031 60.14988581 92.58028402 64.81103067 96.85546875 69.48046875 C100.22787299 73.16209057 103.61174008 76.83296954 107 80.5 C113.13702617 87.14260258 119.24768628 93.80911659 125.35449219 100.47949219 C131.06260755 106.71362539 136.7830084 112.9360536 142.51928711 119.14428711 C146.30851177 123.24678208 150.0842269 127.36144667 153.85546875 131.48046875 C157.22787289 135.16209047 160.61171781 138.83299023 164 142.5 C168.29645031 147.14988581 172.58028402 151.81103067 176.85546875 156.48046875 C180.22787289 160.16209047 183.61171781 163.83299023 187 167.5 C191.29645031 172.14988581 195.58028402 176.81103067 199.85546875 181.48046875 C203.22787299 185.16209057 206.61174008 188.83296954 210 192.5 C216.13702617 199.14260258 222.24768628 205.80911659 228.35449219 212.47949219 C234.06260755 218.71362539 239.7830084 224.9360536 245.51928711 231.14428711 C249.30851177 235.24678208 253.0842269 239.36144667 256.85546875 243.48046875 C260.22787289 247.16209047 263.61171781 250.83299023 267 254.5 C271.29645031 259.14988581 275.58028402 263.81103067 279.85546875 268.48046875 C283.22787358 272.16209121 286.61187387 275.83284531 290 279.5 C291.50032799 281.12501034 293.00047451 282.75018788 294.50048828 284.37548828 C295.50640272 285.46525622 296.51259101 286.55477144 297.51904297 287.64404297 C298.99333226 289.24051357 300.4656398 290.83879002 301.9375 292.4375 C302.79214844 293.36433594 303.64679688 294.29117188 304.52734375 295.24609375 C307.09049732 298.10079085 309.54390589 301.05268707 312 304 C312.33 203.68 312.66 103.36 313 0 C319.93 0.495 319.93 0.495 327 1 C330.73809866 1.08570152 334.45143035 1.1413743 338.1875 1.125 C339.52844727 1.13080078 339.52844727 1.13080078 340.89648438 1.13671875 C347.37114993 1.12738253 353.49742891 0.59114283 360 0 C359.67 138.6 359.34 277.2 359 420 C331 420 331 420 323.8125 413.625 C321.2421875 409.734375 321.2421875 409.734375 320.10449219 407.79492188 C318.50946355 405.20282406 316.52227868 403.08241272 314.4375 400.875 C313.72207031 400.08609375 313.00664063 399.2971875 312.26953125 398.484375 C308.32089336 394.16194178 304.3680857 389.84345887 300.40722656 385.53222656 C297.64566151 382.52535941 294.88813985 379.51478411 292.12988281 376.50488281 C289.81450701 373.97856886 287.49811546 371.453201 285.1796875 368.9296875 C280.95233249 364.32650235 276.73473917 359.71586224 272.5625 355.0625 C268.10602289 350.09761909 263.58051938 345.19865048 259.05078125 340.30078125 C252.84683239 333.5921578 246.66313207 326.8653631 240.5625 320.0625 C236.56482627 315.60713196 232.50799115 311.20916481 228.44165039 306.81665039 C224.70473118 302.77550116 221.01700894 298.69289404 217.34375 294.59375 C214.5853164 291.54108348 211.7949969 288.51915705 209 285.5 C204.74114677 280.8995846 200.52758158 276.2626635 196.34375 271.59375 C193.5853164 268.54108348 190.7949969 265.51915705 188 262.5 C184.47302384 258.69015859 180.96489786 254.86662515 177.5 251 C173.06629286 246.05409564 168.5605658 241.17713346 164.05078125 236.30078125 C157.84683239 229.5921578 151.66313207 222.8653631 145.5625 216.0625 C141.56482627 211.60713196 137.50799115 207.20916481 133.44165039 202.81665039 C129.70473118 198.77550116 126.01700894 194.69289404 122.34375 190.59375 C119.5853164 187.54108348 116.7949969 184.51915705 114 181.5 C109.74114677 176.8995846 105.52758158 172.2626635 101.34375 167.59375 C98.5853164 164.54108348 95.7949969 161.51915705 93 158.5 C89.47302384 154.69015859 85.96489786 150.86662515 82.5 147 C79.07376635 143.17795597 75.60969463 139.39361628 72.125 135.625 C71.6187207 135.0774707 71.11244141 134.52994141 70.59082031 133.96582031 C70.08389648 133.41764648 69.57697266 132.86947266 69.0546875 132.3046875 C66.1141947 129.12491747 63.17931669 125.9400683 60.25 122.75 C59.43015625 121.85796875 58.6103125 120.9659375 57.765625 120.046875 C54.14604618 116.05920342 50.57788613 112.0251219 47 108 C46.67 211.29 46.34 314.58 46 421 C36 420 36 420 32.76171875 419.44921875 C24.65322934 418.13029897 16.51202736 418.78712219 8.53515625 420.5625 C6 421 6 421 0 421 C0 282.07 0 143.14 0 0 Z " fill="#FEFEFE" transform="translate(765,2545)"/>
<path d="M0 0 C73.59 0 147.18 0 223 0 C222.67 4.62 222.34 9.24 222 14 C221.914207 17.69666917 221.8560568 21.36789981 221.875 25.0625 C221.87693359 25.99916504 221.87886719 26.93583008 221.88085938 27.90087891 C221.92482247 34.97771547 222.29865891 41.95644761 223 49 C215.31182672 48.58457803 207.73481204 47.88729776 200.11401367 46.81958008 C170.73801501 42.77786444 141.94378165 42.41410852 112.3125 42.6875 C96.369375 42.790625 80.42625 42.89375 64 43 C64 88.21 64 133.42 64 180 C79.530625 179.896875 95.06125 179.79375 111.0625 179.6875 C118.25172241 179.65015747 118.25172241 179.65015747 125.58618164 179.61206055 C154.14820319 179.40345048 182.51992559 178.16799136 211 176 C210.89403 177.52429123 210.89403 177.52429123 210.78591919 179.07937622 C210.69331234 180.43328397 210.60077665 181.78719658 210.50830078 183.14111328 C210.43842705 184.14208794 210.43842705 184.14208794 210.36714172 185.1632843 C209.98847178 190.7409326 209.84912758 196.28655626 209.875 201.875 C209.87113281 202.73351563 209.86726563 203.59203125 209.86328125 204.4765625 C209.87173011 210.05280707 210.33991298 215.46571378 211 221 C210.38251389 220.96463638 209.76502777 220.92927277 209.12882996 220.89283752 C200.8164918 220.42145489 192.50260729 219.9819071 184.1875 219.5625 C183.49840546 219.52772427 182.80931091 219.49294853 182.09933472 219.45711899 C142.74335917 217.48821839 103.40633494 217.32838612 64 217 C64 270.46 64 323.92 64 379 C81.32297949 379 98.57530955 378.88634888 115.875 378.25 C117.03878174 378.2080954 118.20256348 378.1661908 119.40161133 378.12301636 C155.68744557 376.78522328 191.89140718 373.78712646 228 370 C228.06175164 377.92631859 227.94980374 385.75773144 227.26757812 393.65429688 C226.67038135 402.24596786 227.5101694 410.18304912 228 419 C152.76 419 77.52 419 0 419 C0 280.73 0 142.46 0 0 Z " fill="#FEFEFE" transform="translate(1689,2545)"/>
<path d="M0 0 C73.26 0 146.52 0 222 0 C221 14 221 14 220.25 19.1875 C219.48717097 26.80440483 221.30077037 34.40115401 222.70874023 41.86279297 C223.0357596 44.26239693 223.01861035 46.58071749 223 49 C215.31182672 48.58457803 207.73481204 47.88729776 200.11401367 46.81958008 C170.73801501 42.77786444 141.94378165 42.41410852 112.3125 42.6875 C96.369375 42.790625 80.42625 42.89375 64 43 C64 88.21 64 133.42 64 180 C79.530625 179.896875 95.06125 179.79375 111.0625 179.6875 C118.25172241 179.65015747 118.25172241 179.65015747 125.58618164 179.61206055 C154.14820319 179.40345048 182.51992559 178.16799136 211 176 C210.89403 177.41390266 210.89403 177.41390266 210.78591919 178.85636902 C210.64849808 180.72607109 210.64849808 180.72607109 210.50830078 182.63354492 C210.41702911 183.8648967 210.32575745 185.09624847 210.23171997 186.36491394 C209.91379637 191.35231162 209.85332645 196.31674745 209.875 201.3125 C209.87113281 202.22322266 209.86726562 203.13394531 209.86328125 204.07226562 C209.87146254 209.78689539 210.32020796 215.32884819 211 221 C210.38251389 220.96463638 209.76502777 220.92927277 209.12882996 220.89283752 C200.8164918 220.42145489 192.50260729 219.9819071 184.1875 219.5625 C183.49840546 219.52772427 182.80931091 219.49294853 182.09933472 219.45711899 C142.74335917 217.48821839 103.40633494 217.32838612 64 217 C64 270.46 64 323.92 64 379 C81.32297949 379 98.57530955 378.88634888 115.875 378.25 C117.03878174 378.2080954 118.20256348 378.1661908 119.40161133 378.12301636 C155.68744557 376.78522328 191.89140718 373.78712646 228 370 C228.06413845 378.16854635 227.91506322 386.24477975 227.26757812 394.38671875 C226.72294807 402.76675984 227.49296886 410.38047058 228 419 C152.76 419 77.52 419 0 419 C0 280.73 0 142.46 0 0 Z " fill="#FEFEFE" transform="translate(461,2545)"/>
</svg>
