<svg version="1.1" id="Layer_1" xmlns:x="ns_extend;" xmlns:i="ns_ai;" xmlns:graph="ns_graphs;" xmlns="http://www.w3.org/2000/svg" xmlns:xlink="http://www.w3.org/1999/xlink" x="0px" y="0px" viewBox="0 0 145.4 63" style="enable-background:new 0 0 145.4 63;" xml:space="preserve">
 <style type="text/css">
  .st0{fill:#FFFFFF;}
 </style>
 <metadata>
  <sfw xmlns="ns_sfw;">
   <slices>
   </slices>
   <sliceSourceBounds bottomLeftOrigin="true" height="63" width="145.4" x="96.3" y="-218.4">
   </sliceSourceBounds>
  </sfw>
 </metadata>
 <g>
  <g id="Group_10768" transform="translate(0 0)">
   <ellipse id="Ellipse_841" class="st0" cx="122.4" cy="23" rx="23" ry="23">
   </ellipse>
   <g id="Group_10767" transform="translate(0 0.78)">
    <path id="Path_5167" d="M42.6,24.2c0,12.2-6.3,19.3-14,19.3c-3.3,0.2-6.4-1.7-7.7-4.8c-2,3.1-5.5,4.9-9.2,4.8
				c-4.4,0-9.5-2.4-9.5-11.4v-9.7c0-2.5-2.2-3-2.2-4.3v-0.2c0-0.6,0.5-1.1,1.1-1.2l7.2-1.1c1.4-0.2,2.2,0.1,2.2,1.4l-0.1,18.3
				c-0.1,3,1,4.9,3,4.9c4.1,0,6.2-6.1,6.2-11.2v-6.7c0-2.5-2.2-3-2.2-4.3v-0.2c0-0.6,0.5-1.1,1.2-1.2l6.6-1.2
				c1.4-0.2,2.3,0.2,2.3,1.5l-0.2,18.2c-0.1,3.1,0.8,5,3.1,5c3.9,0,7.9-6.1,7.9-11.9c0-4.8-5.1-5.1-5.1-9.4
				c-0.1-1.8,1.4-3.4,3.2-3.5c0.1,0,0.3,0,0.4,0C40.4,15.4,42.6,18.6,42.6,24.2z">
    </path>
    <path id="Path_5168" d="M47.3,41.9v-0.2c0-1.4,2.1-1.8,2.1-4.3V24.8c0-2.5-2.1-3.1-2.1-4.3v-0.2c0-0.5,0.4-0.8,1.2-1.2l7-3.5
				c1.4-0.7,2.3,0.1,2.3,1.1v20.7c0,2.4,2.4,2.9,2.4,4.3v0.2c0,0.6-0.5,1-1.3,1H48.5C47.8,42.9,47.3,42.5,47.3,41.9z M48.1,7.1
				c0.1-2.8,2.4-5,5.2-4.9c0.1,0,0.3,0,0.4,0c2.7-0.3,5.1,1.7,5.4,4.4s-1.7,5.1-4.4,5.4c-0.3,0-0.7,0-1,0c-2.8,0.3-5.2-1.7-5.5-4.5
				C48.1,7.4,48.1,7.2,48.1,7.1z">
    </path>
    <path id="Path_5169" d="M64.1,41.9v-0.2c0-1.4,2.2-1.8,2.2-4.2V9.9c0-2.5-2.2-3.1-2.2-4.3V5.5c0-0.6,0.4-0.8,1.1-1.1l7.1-3.5
				c1.5-0.7,2.3,0.1,2.3,1v35.6c0,2.4,2.4,2.8,2.4,4.2v0.2c0,0.6-0.6,1-1.3,1H65.4C64.6,42.9,64.1,42.5,64.1,41.9z">
    </path>
    <path id="Path_5170" d="M80.9,41.9v-0.2c0-1.4,2.2-1.8,2.2-4.2V9.9c0-2.5-2.2-3.1-2.2-4.3V5.5c0-0.6,0.4-0.8,1.1-1.1l7.1-3.5
				c1.5-0.7,2.3,0.1,2.3,1v35.6c0,2.4,2.4,2.8,2.4,4.2v0.2c0,0.6-0.6,1-1.3,1H82.2C81.4,42.9,80.9,42.5,80.9,41.9z">
    </path>
   </g>
  </g>
  <g id="Group_10769" transform="translate(28.337 30.669)">
   <path id="Path_5171" d="M20.8,22.5h3.3c0.5,0,0.9,0.1,1.3,0.2c0.3,0.1,0.7,0.3,0.9,0.5c0.2,0.2,0.4,0.5,0.6,0.8
			c0.1,0.3,0.2,0.6,0.2,1c0,0.3-0.1,0.6-0.2,0.9c-0.1,0.2-0.2,0.5-0.4,0.6c-0.2,0.2-0.3,0.3-0.5,0.4c-0.2,0.1-0.3,0.2-0.5,0.2
			c0.2,0,0.5,0.1,0.7,0.2c0.6,0.2,1,0.6,1.2,1.2c0.2,0.3,0.2,0.7,0.2,1.1c0,0.5-0.1,0.9-0.3,1.3c-0.2,0.3-0.5,0.6-0.8,0.8
			c-0.4,0.2-0.8,0.4-1.2,0.5c-0.5,0.1-1,0.1-1.4,0.1h-3.2L20.8,22.5z M23.9,26.6c0.2,0,0.4,0,0.6-0.1c0.2-0.1,0.4-0.1,0.6-0.3
			c0.2-0.1,0.3-0.3,0.4-0.5c0.1-0.2,0.2-0.4,0.2-0.7c0-0.2,0-0.5-0.2-0.7c-0.1-0.2-0.3-0.3-0.4-0.4c-0.2-0.1-0.4-0.2-0.6-0.2
			c-0.2,0-0.4-0.1-0.6-0.1h-1.8v2.9H23.9z M23.9,31.1c0.3,0,0.5,0,0.8,0c0.3,0,0.5-0.1,0.8-0.2c0.2-0.1,0.4-0.3,0.6-0.5
			c0.3-0.5,0.3-1.2,0-1.7c-0.1-0.2-0.3-0.4-0.5-0.5c-0.2-0.1-0.5-0.2-0.7-0.3c-0.3,0-0.5-0.1-0.8-0.1h-1.8v3.3L23.9,31.1z">
   </path>
   <path id="Path_5172" d="M35.3,22.5h1.4l3.9,9.8H39l-1-2.7h-4l-1,2.7h-1.5L35.3,22.5z M37.6,28.4L36,24.1l-1.6,4.3H37.6z">
   </path>
   <path id="Path_5173" d="M44.8,22.5h1.4l5.4,7.7v-7.7H53v9.8h-1.4l-5.4-7.7v7.7h-1.4L44.8,22.5z">
   </path>
   <path id="Path_5174" d="M58.2,22.5h1.4V27l4.1-4.5h1.6l-3.7,4l4.1,5.8h-1.7l-3.4-4.8l-1.1,1.2v3.6h-1.4V22.5z">
   </path>
  </g>
 </g>
</svg>